<svg width="468" height="193" viewBox="0 0 468 193" fill="none" xmlns="http://www.w3.org/2000/svg">
<path fill-rule="evenodd" clip-rule="evenodd" d="M16.7106 96.0355C16.7106 51.8527 52.5278 16.0355 96.7106 16.0355C140.893 16.0355 176.711 51.8527 176.711 96.0355C176.711 140.218 140.893 176.036 96.7106 176.036C52.5278 176.036 16.7106 140.218 16.7106 96.0355ZM121.436 140.008H140.019C143.272 140.008 146.125 137.058 146.125 133.696V95.7551C146.125 92.5341 143.308 88.5997 140.019 88.5997L126.196 88.5965V63.6139H134.571V72.7837V73.5785H135.366H145.33H146.125V72.7837V58.2921C146.125 54.9723 143.272 52.0601 140.019 52.0601H121.436C118.185 52.0601 115.333 54.9723 115.333 58.2921V93.9251C115.333 97.2431 118.182 100.154 121.43 100.154L134.571 100.151V128.454H126.196V112.642V111.845L125.4 111.847L116.127 111.863L115.333 111.865V112.658V133.859C115.333 137.134 118.185 140.008 121.436 140.008ZM58.8497 140.011H58.0551H48.0907H47.2959V139.216V52.8582V52.0634H48.0907H74.6625H75.4571V52.8582V62.8226V63.6172H74.6625H58.8497V88.5998H68.0195H68.8141V89.3943V99.3587V100.154H68.0195H58.8497V139.216V140.011ZM85.8941 140.011H104.899C108.216 140.011 111.125 137.08 111.125 133.739V94.7952C111.125 91.4948 108.216 88.5998 104.899 88.5998H91.1961V63.6174H99.5711V72.7872V73.582H100.366H110.33H111.125V72.7872V58.2556C111.125 54.957 108.216 52.0634 104.9 52.0634H85.7281C82.5551 52.0634 79.6655 55.1288 79.6655 58.4946V133.895C79.6655 137.153 82.5761 140.011 85.8941 140.011ZM91.1993 100.153H99.5743V128.457H91.1993V100.153Z" fill="white"/>
<path d="M229.663 53.7646C233.737 53.7646 237.063 55.0326 239.64 57.5684C242.218 60.0627 243.507 63.7002 243.507 68.4809V88.4352H239.204V68.9798C239.204 65.2799 238.269 62.453 236.398 60.4992C234.569 58.5453 232.054 57.5684 228.853 57.5684C225.569 57.5684 222.95 58.6077 220.996 60.6863C219.042 62.7648 218.065 65.8203 218.065 69.8528V88.4352H213.7V54.3882H218.065V60.1874C219.146 58.1088 220.705 56.5291 222.742 55.4483C224.779 54.3258 227.086 53.7646 229.663 53.7646Z" fill="white"/>
<path d="M283.965 69.6657C283.965 71.1623 283.923 72.3055 283.84 73.0953H255.592C255.717 75.6728 256.341 77.876 257.463 79.7052C258.585 81.5343 260.061 82.927 261.89 83.8831C263.719 84.7977 265.715 85.255 267.877 85.255C270.703 85.255 273.073 84.569 274.985 83.1972C276.939 81.8253 278.228 79.9754 278.851 77.6474H283.466C282.634 80.9731 280.847 83.696 278.103 85.8162C275.401 87.8947 271.992 88.934 267.877 88.934C264.676 88.934 261.807 88.2273 259.271 86.8139C256.735 85.3589 254.74 83.3219 253.285 80.7029C251.872 78.0423 251.165 74.9453 251.165 71.4117C251.165 67.8781 251.872 64.781 253.285 62.1205C254.698 59.4599 256.673 57.4229 259.209 56.0095C261.745 54.5961 264.634 53.8893 267.877 53.8893C271.119 53.8893 273.946 54.5961 276.357 56.0095C278.81 57.4229 280.681 59.3352 281.969 61.7463C283.3 64.1159 283.965 66.7557 283.965 69.6657ZM279.537 69.541C279.579 67.0051 279.059 64.8434 277.978 63.0558C276.939 61.2683 275.505 59.9172 273.676 59.0026C271.847 58.0881 269.851 57.6308 267.689 57.6308C264.447 57.6308 261.682 58.6701 259.396 60.7486C257.11 62.8272 255.842 65.758 255.592 69.541H279.537Z" fill="white"/>
<path d="M297.625 58.0673V79.2063C297.625 81.2849 298.02 82.7191 298.81 83.509C299.6 84.2988 300.993 84.6937 302.988 84.6937H306.979V88.4352H302.302C299.226 88.4352 296.939 87.7285 295.443 86.315C293.946 84.86 293.198 82.4905 293.198 79.2063V58.0673H288.459V54.3882H293.198V45.8453H297.625V54.3882H306.979V58.0673H297.625Z" fill="white"/>
<path d="M359.075 54.3882L348.412 88.4352H344.047L334.631 59.8756L325.215 88.4352H320.788L310.124 54.3882H314.552L323.032 84.0078L332.573 54.3882H336.938L346.354 84.0702L354.772 54.3882H359.075Z" fill="white"/>
<path d="M379.929 88.934C376.728 88.934 373.839 88.2273 371.261 86.8139C368.725 85.3589 366.709 83.3219 365.213 80.7029C363.758 78.0423 363.03 74.9453 363.03 71.4117C363.03 67.8781 363.778 64.8018 365.275 62.1828C366.772 59.5223 368.808 57.4853 371.386 56.0718C373.963 54.6168 376.853 53.8893 380.054 53.8893C383.255 53.8893 386.144 54.6168 388.721 56.0718C391.34 57.4853 393.377 59.5223 394.832 62.1828C396.329 64.8018 397.077 67.8781 397.077 71.4117C397.077 74.9037 396.329 77.98 394.832 80.6405C393.336 83.3011 391.278 85.3589 388.659 86.8139C386.04 88.2273 383.13 88.934 379.929 88.934ZM379.929 85.1302C382.174 85.1302 384.252 84.6314 386.165 83.6337C388.077 82.5944 389.615 81.0562 390.779 79.0192C391.985 76.9407 392.587 74.4048 392.587 71.4117C392.587 68.4185 392.005 65.9035 390.841 63.8665C389.677 61.7879 388.139 60.2498 386.227 59.2521C384.315 58.2128 382.236 57.6931 379.991 57.6931C377.746 57.6931 375.668 58.2128 373.755 59.2521C371.843 60.2498 370.305 61.7879 369.141 63.8665C368.019 65.9035 367.457 68.4185 367.457 71.4117C367.457 74.4048 368.019 76.9407 369.141 79.0192C370.305 81.0562 371.822 82.5944 373.693 83.6337C375.605 84.6314 377.684 85.1302 379.929 85.1302Z" fill="white"/>
<path d="M409.399 60.4368C410.355 58.3167 411.81 56.6746 413.764 55.5106C415.759 54.3466 418.191 53.7646 421.06 53.7646V58.3167H419.875C416.715 58.3167 414.18 59.1689 412.267 60.8733C410.355 62.5778 409.399 65.4254 409.399 69.4163V88.4352H405.034V54.3882H409.399V60.4368Z" fill="white"/>
<path d="M446.021 88.4352L431.991 73.1577V88.4352H427.626V42.2909H431.991V69.6033L445.71 54.3882H451.821L435.67 71.3493L451.945 88.4352H446.021Z" fill="white"/>
<path d="M218.003 123.871C219.083 121.585 220.788 119.693 223.116 118.197C225.485 116.658 228.292 115.889 231.534 115.889C234.61 115.889 237.375 116.617 239.828 118.072C242.322 119.485 244.255 121.522 245.627 124.183C247.04 126.802 247.747 129.857 247.747 133.349C247.747 136.841 247.04 139.918 245.627 142.578C244.255 145.239 242.322 147.297 239.828 148.752C237.375 150.207 234.61 150.934 231.534 150.934C228.333 150.934 225.548 150.186 223.178 148.689C220.809 147.151 219.083 145.239 218.003 142.952V166.523H213.7V116.388H218.003V123.871ZM243.32 133.349C243.32 130.522 242.758 128.091 241.636 126.054C240.555 123.975 239.059 122.395 237.146 121.314C235.234 120.234 233.072 119.693 230.661 119.693C228.333 119.693 226.192 120.254 224.238 121.377C222.326 122.499 220.809 124.1 219.686 126.178C218.564 128.257 218.003 130.668 218.003 133.412C218.003 136.155 218.564 138.567 219.686 140.645C220.809 142.724 222.326 144.324 224.238 145.447C226.192 146.569 228.333 147.13 230.661 147.13C233.072 147.13 235.234 146.59 237.146 145.509C239.059 144.387 240.555 142.786 241.636 140.707C242.758 138.587 243.32 136.135 243.32 133.349Z" fill="white"/>
<path d="M253.783 133.349C253.783 129.857 254.469 126.802 255.841 124.183C257.255 121.522 259.188 119.485 261.64 118.072C264.135 116.617 266.941 115.889 270.059 115.889C273.301 115.889 276.086 116.638 278.414 118.134C280.784 119.631 282.488 121.543 283.528 123.871V116.388H287.893V150.435H283.528V142.89C282.447 145.218 280.722 147.151 278.352 148.689C276.024 150.186 273.239 150.934 269.996 150.934C266.92 150.934 264.135 150.207 261.64 148.752C259.188 147.297 257.255 145.239 255.841 142.578C254.469 139.918 253.783 136.841 253.783 133.349ZM283.528 133.412C283.528 130.668 282.966 128.257 281.844 126.178C280.722 124.1 279.183 122.499 277.23 121.377C275.317 120.254 273.197 119.693 270.869 119.693C268.458 119.693 266.296 120.234 264.384 121.314C262.472 122.395 260.954 123.975 259.832 126.054C258.751 128.091 258.211 130.522 258.211 133.349C258.211 136.135 258.751 138.587 259.832 140.707C260.954 142.786 262.472 144.387 264.384 145.509C266.296 146.59 268.458 147.13 270.869 147.13C273.197 147.13 275.317 146.569 277.23 145.447C279.183 144.324 280.722 142.724 281.844 140.645C282.966 138.567 283.528 136.155 283.528 133.412Z" fill="white"/>
<path d="M302.223 122.437C303.179 120.317 304.634 118.675 306.588 117.511C308.583 116.347 311.015 115.765 313.883 115.765V120.317H312.699C309.539 120.317 307.003 121.169 305.091 122.873C303.179 124.578 302.223 127.425 302.223 131.416V150.435H297.858V116.388H302.223V122.437Z" fill="white"/>
<path d="M326.124 120.067V141.206C326.124 143.285 326.519 144.719 327.309 145.509C328.099 146.299 329.492 146.694 331.487 146.694H335.478V150.435H330.801C327.725 150.435 325.438 149.728 323.942 148.315C322.445 146.86 321.697 144.49 321.697 141.206V120.067H316.958V116.388H321.697V107.845H326.124V116.388H335.478V120.067H326.124Z" fill="white"/>
<path d="M358.64 115.765C362.714 115.765 366.04 117.033 368.617 119.568C371.195 122.063 372.484 125.7 372.484 130.481V150.435H368.181V130.98C368.181 127.28 367.246 124.453 365.375 122.499C363.546 120.545 361.031 119.568 357.83 119.568C354.545 119.568 351.926 120.608 349.973 122.686C348.019 124.765 347.042 127.82 347.042 131.853V150.435H342.677V116.388H347.042V122.187C348.123 120.109 349.682 118.529 351.719 117.448C353.756 116.326 356.063 115.765 358.64 115.765Z" fill="white"/>
<path d="M412.942 131.666C412.942 133.162 412.9 134.305 412.817 135.095H384.569C384.694 137.673 385.317 139.876 386.44 141.705C387.562 143.534 389.038 144.927 390.867 145.883C392.696 146.798 394.692 147.255 396.853 147.255C399.68 147.255 402.05 146.569 403.962 145.197C405.916 143.825 407.205 141.975 407.828 139.647H412.443C411.611 142.973 409.824 145.696 407.08 147.816C404.378 149.895 400.969 150.934 396.853 150.934C393.652 150.934 390.784 150.227 388.248 148.814C385.712 147.359 383.717 145.322 382.262 142.703C380.848 140.042 380.142 136.945 380.142 133.412C380.142 129.878 380.848 126.781 382.262 124.12C383.675 121.46 385.65 119.423 388.186 118.009C390.722 116.596 393.611 115.889 396.853 115.889C400.096 115.889 402.923 116.596 405.334 118.009C407.787 119.423 409.657 121.335 410.946 123.746C412.276 126.116 412.942 128.756 412.942 131.666ZM408.514 131.541C408.556 129.005 408.036 126.843 406.955 125.056C405.916 123.268 404.482 121.917 402.653 121.003C400.824 120.088 398.828 119.631 396.666 119.631C393.424 119.631 390.659 120.67 388.373 122.749C386.086 124.827 384.819 127.758 384.569 131.541H408.514Z" fill="white"/>
<path d="M425.293 122.437C426.249 120.317 427.704 118.675 429.658 117.511C431.653 116.347 434.085 115.765 436.953 115.765V120.317H435.769C432.609 120.317 430.073 121.169 428.161 122.873C426.249 124.578 425.293 127.425 425.293 131.416V150.435H420.928V116.388H425.293V122.437Z" fill="white"/>
</svg>
