<svg width="200" height="201" viewBox="0 0 200 201" fill="none" xmlns="http://www.w3.org/2000/svg">
<path fill-rule="evenodd" clip-rule="evenodd" d="M0 100.5C0 45.2715 44.7715 0.5 100 0.5C155.229 0.5 200 45.2715 200 100.5C200 155.729 155.229 200.5 100 200.5C44.7715 200.5 0 155.729 0 100.5ZM130.906 155.465H154.136C158.202 155.465 161.768 151.779 161.768 147.576V100.15C161.768 96.1233 158.247 91.2053 154.136 91.2053L136.857 91.2013V59.973H147.326V72.4288H161.768V53.3208C161.768 49.171 158.202 45.5308 154.136 45.5308H130.906C126.843 45.5308 123.279 49.171 123.279 53.3208V97.862C123.279 102.01 126.84 105.648 130.9 105.648L147.326 105.644V141.023H136.857V120.262L123.279 120.287V147.779C123.279 151.874 126.843 155.465 130.906 155.465ZM52.674 155.47H38.2318V45.5348H73.4333V59.977H52.674V91.2053H65.1295V105.648H52.674V155.47ZM86.4795 155.47H110.236C114.382 155.47 118.018 151.806 118.018 147.63V98.9495C118.018 94.824 114.382 91.2053 110.236 91.2053H93.107V59.9773H103.576V72.433H118.018V53.275C118.018 49.1518 114.382 45.5348 110.236 45.5348H86.272C82.3057 45.5348 78.6937 49.3665 78.6937 53.5738V147.825C78.6937 151.897 82.332 155.47 86.4795 155.47ZM93.111 105.647H103.58V141.027H93.111V105.647Z" fill="white"/>
</svg>
