<svg width="200" height="201" viewBox="0 0 200 201" fill="none" xmlns="http://www.w3.org/2000/svg">
<path d="M100 0.5C44.7715 0.5 0 45.2715 0 100.5C0 155.729 44.7715 200.5 100 200.5C155.229 200.5 200 155.729 200 100.5C200 45.2715 155.229 0.5 100 0.5Z" fill="#F16C4F"/>
<path d="M161.768 72.4285V53.3205C161.768 49.1707 158.202 45.5305 154.136 45.5305H130.906C126.843 45.5305 123.279 49.1707 123.279 53.3205V97.8617C123.279 102.009 126.84 105.647 130.9 105.647L147.326 105.643V141.023H136.857V120.262L123.279 120.286V147.779C123.279 151.873 126.843 155.465 130.906 155.465H154.136C158.202 155.465 161.768 151.779 161.768 147.576V100.149C161.768 96.123 158.246 91.205 154.136 91.205L136.857 91.201V59.9727H147.326V72.4285H161.768Z" fill="white"/>
<path d="M65.1298 91.2053V105.648H52.6743V155.47H38.2318V45.5348H73.4335V59.9773H52.6743V91.2053H65.1298Z" fill="white"/>
<path fill-rule="evenodd" clip-rule="evenodd" d="M110.236 155.47H86.4795C82.332 155.47 78.6937 151.897 78.6937 147.825V53.5738C78.6937 49.3665 82.3057 45.5348 86.272 45.5348H110.236C114.382 45.5348 118.018 49.1518 118.018 53.275V72.433H103.576V59.9773H93.107V91.2053H110.236C114.382 91.2053 118.018 94.824 118.018 98.9495V147.63C118.018 151.806 114.382 155.47 110.236 155.47ZM103.58 105.647H93.111V141.027H103.58V105.647Z" fill="white"/>
</svg>
