<svg width="522" height="98" viewBox="0 0 522 98" fill="none" xmlns="http://www.w3.org/2000/svg">
<g clip-path="url(#clip0_10_38)">
<path d="M57.9396 32.4641L49.4216 41.1212V42.7335C49.4216 45.787 48.2757 46.7976 45.3355 46.7976H42.3521V54.0013H48.773V73.5904C48.773 79.44 52.0591 83.5686 59.0854 83.5686H64.3385V76.365H57.9396V53.9798H64.3385V46.7762H57.9396V32.4641Z" fill="#3944FA"/>
<path d="M148.041 32.4641L139.522 41.1212V42.7335C139.522 45.787 138.377 46.7976 135.436 46.7976H132.453V54.0013H138.874V73.5904C138.874 79.44 142.16 83.5686 149.186 83.5686H154.44V76.365H148.041V53.9798H154.44V46.7762H148.041V32.4641Z" fill="#3944FA"/>
<path d="M99.1038 59.4196C99.1038 50.5817 93.223 45.9585 83.5591 45.9585C75.5384 45.9585 70.371 49.1625 68.0794 53.2266L73.3118 57.6348C75.3219 54.7963 77.9597 52.7966 82.6294 52.7966C87.7102 52.7966 89.9368 55.2264 89.9368 59.8496V62.2795H83.4076C72.5119 62.2795 66.999 65.9781 66.999 73.3963C66.999 80.2986 71.7985 84.4488 79.17 84.4488C84.8993 84.4488 88.9854 81.8041 90.348 77.2453H90.7151C91.1479 81.1591 93.655 83.5892 98.0874 83.5892H103.47V76.7509H99.1038V59.441V59.4196ZM89.9368 72.4717C89.9368 75.9553 86.6506 78.1698 82.2623 78.1698C78.4567 78.1698 76.1002 76.6003 76.1002 73.6759V72.2562C76.1002 69.1821 78.6082 67.5478 83.6241 67.5478H89.9368V72.4717Z" fill="#3944FA"/>
<path d="M126.062 44.1528C123.814 44.1528 121.825 44.7764 120.095 45.9806C118.365 47.2063 117.134 48.9481 116.42 51.1844H116.009V44.7119H107.08V83.5901H116.29V60.7318C116.29 59.0761 116.679 57.6139 117.437 56.3452C118.193 55.0765 119.252 54.0873 120.571 53.3777C121.911 52.6681 123.403 52.3025 125.089 52.3025C125.868 52.3025 126.689 52.3671 127.511 52.4745C128.332 52.5821 128.959 52.7111 129.349 52.8401V44.4108C128.916 44.3249 128.397 44.2603 127.749 44.2173C127.121 44.1743 126.538 44.1528 126.041 44.1528H126.062Z" fill="#3944FA"/>
<path d="M182.186 71.3977C182.186 75.3115 178.598 77.2464 174.879 77.2464C170.296 77.2464 167.939 74.5367 167.939 69.2689V46.8189H158.772V70.5588C158.772 79.4617 163.788 84.4499 171.031 84.4499C177.041 84.4499 180.198 81.0953 181.841 77.1174H182.208V83.6119H191.375V46.7974H182.208V71.376L182.186 71.3977Z" fill="#3944FA"/>
<path d="M218.723 45.9597C213.058 45.9597 209.686 48.8842 207.697 53.2923H207.2V46.7983H198.033V97.8257H207.2V77.0963H207.697C209.707 81.5045 213.08 84.4289 218.723 84.4289C227.176 84.4289 232.841 78.1499 232.841 65.1837C232.841 52.2172 227.176 45.9382 218.723 45.9382V45.9597ZM223.242 68.1081C223.242 73.656 220.149 77.1613 214.853 77.1613C210.702 77.1613 207.179 75.1615 207.179 70.968V59.4208C207.179 55.2061 210.68 53.2278 214.853 53.2278C220.149 53.2278 223.242 56.7114 223.242 62.2807V68.1296V68.1081Z" fill="#3944FA"/>
<path d="M258.07 45.9589C252.406 45.9589 249.034 48.8834 247.044 53.2916H246.547V27.7026L237.38 36.82V83.5685H246.547V77.0739H247.044C249.055 81.4821 252.427 84.4065 258.07 84.4065C266.524 84.4065 272.188 78.1275 272.188 65.1615C272.188 52.1949 266.524 45.9159 258.07 45.9159V45.9589ZM262.589 68.1074C262.589 73.6553 259.497 77.1605 254.2 77.1605C250.049 77.1605 246.526 75.1607 246.526 70.9672V59.42C246.526 55.2054 250.027 53.2271 254.2 53.2271C259.497 53.2271 262.589 56.7106 262.589 62.28V68.1288V68.1074Z" fill="black"/>
<path d="M300.206 71.3977C300.206 75.3115 296.618 77.2464 292.899 77.2464C288.316 77.2464 285.959 74.5367 285.959 69.2689V46.8189H276.792V70.5588C276.792 79.4617 281.808 84.4499 289.051 84.4499C295.062 84.4499 298.218 81.0953 299.861 77.1174H300.228V83.6119H309.395V46.7974H300.228V71.376L300.206 71.3977Z" fill="black"/>
<path d="M336.592 61.3986L329.933 59.9794C327.945 59.5278 326.518 58.9473 325.675 58.2377C324.81 57.5281 324.399 56.6034 324.42 55.4852C324.42 54.1735 325.047 53.0983 326.345 52.2813C327.641 51.4641 329.241 51.034 331.166 51.034C332.592 51.034 333.803 51.2705 334.776 51.7221C335.771 52.1737 336.549 52.7758 337.132 53.5284C337.717 54.281 338.127 55.0552 338.365 55.9153L346.753 55.0121C346.126 51.7006 344.483 49.0773 341.845 47.1419C339.208 45.2066 335.597 44.239 331.014 44.239C327.901 44.239 325.134 44.7336 322.755 45.7012C320.377 46.6689 318.519 48.0451 317.178 49.8084C315.838 51.5716 315.189 53.6575 315.211 56.0443C315.211 58.8827 316.076 61.2266 317.891 63.0759C319.707 64.9252 322.475 66.2369 326.215 67.011L332.874 68.4087C334.668 68.7958 336.009 69.3544 336.852 70.0859C337.717 70.8166 338.127 71.7195 338.127 72.838C338.127 74.1496 337.457 75.268 336.138 76.1493C334.819 77.0315 333.046 77.4825 330.863 77.4825C328.679 77.4825 327.015 77.0315 325.696 76.1493C324.377 75.268 323.512 73.9349 323.102 72.1714L314.108 73.0319C314.67 76.6012 316.399 79.3966 319.319 81.3964C322.237 83.3962 326.085 84.4065 330.863 84.4065C334.127 84.4065 337.002 83.8905 339.51 82.8369C342.018 81.7834 343.986 80.3428 345.413 78.472C346.818 76.6012 347.553 74.4508 347.553 71.9991C347.553 69.2258 346.624 66.968 344.808 65.2477C343.013 63.5275 340.245 62.2588 336.549 61.4847L336.592 61.3986Z" fill="black"/>
<path d="M366.535 46.7974H351.531V54.001H357.368V76.3867H351.531V83.5903H372.415V76.3867H366.535V46.7974Z" fill="black"/>
<path d="M403.72 45.917C401.71 44.7773 399.353 44.1968 396.651 44.1968C393.732 44.1968 391.289 44.8418 389.3 46.1105C387.311 47.4008 385.884 49.121 384.976 51.2928H384.522V44.6914H375.723V83.5694H384.933V60.7973C384.933 58.9265 385.279 57.3353 385.992 56.0236C386.706 54.7118 387.679 53.7012 388.91 52.9916C390.143 52.282 391.592 51.9379 393.191 51.9379C395.569 51.9379 397.429 52.669 398.769 54.1528C400.109 55.615 400.802 57.6578 400.802 60.2597V83.5911H410.011V58.8405C410.011 55.744 409.471 53.0991 408.368 50.9058C407.266 48.734 405.688 47.0566 403.677 45.917H403.72Z" fill="black"/>
<path d="M445.142 48.906C443.499 47.2932 441.597 46.1105 439.435 45.358C437.295 44.5838 435.003 44.1968 432.603 44.1968C428.864 44.1968 425.621 45.0354 422.853 46.7342C420.086 48.4329 417.945 50.7982 416.41 53.8087C414.875 56.8407 414.097 60.3458 414.097 64.3453C414.097 68.345 414.854 71.936 416.389 74.947C417.924 77.9354 420.108 80.2581 422.939 81.8709C425.771 83.5045 429.166 84.3217 433.079 84.3217C436.106 84.3217 438.808 83.8707 441.164 82.9461C443.521 82.0215 445.467 80.7308 446.98 79.0539C448.493 77.3762 449.531 75.398 450.072 73.1402L441.467 72.1724C441.056 73.2692 440.451 74.1938 439.673 74.9253C438.873 75.6776 437.943 76.2369 436.841 76.6022C435.76 76.9892 434.549 77.1615 433.208 77.1615C431.198 77.1615 429.469 76.7312 427.977 75.8923C426.485 75.0543 425.318 73.8068 424.496 72.194C423.696 70.6461 423.286 68.775 423.264 66.6032H450.483V63.7863C450.483 60.3887 450.007 57.4428 449.055 54.9699C448.105 52.497 446.807 50.4542 445.142 48.8629V48.906ZM423.286 60.4748C423.371 58.948 423.761 57.5288 424.453 56.2386C425.253 54.7763 426.356 53.5937 427.782 52.6906C429.209 51.7874 430.852 51.3358 432.755 51.3358C434.528 51.3358 436.063 51.7229 437.403 52.5186C438.743 53.3142 439.781 54.3893 440.516 55.7655C441.273 57.1417 441.64 58.7115 441.662 60.4532H423.307L423.286 60.4748Z" fill="black"/>
<path d="M475.345 61.3986L468.687 59.9794C466.697 59.5278 465.271 58.9473 464.428 58.2377C463.563 57.5281 463.152 56.6034 463.173 55.4852C463.173 54.1735 463.801 53.0983 465.098 52.2813C466.394 51.4641 467.994 51.034 469.919 51.034C471.345 51.034 472.557 51.2705 473.53 51.7221C474.523 52.1737 475.302 52.7758 475.886 53.5284C476.47 54.281 476.88 55.0552 477.118 55.9153L485.507 55.0121C484.879 51.7006 483.237 49.0773 480.599 47.1419C477.961 45.2066 474.351 44.239 469.767 44.239C466.654 44.239 463.887 44.7336 461.509 45.7012C459.131 46.6689 457.272 48.0451 455.932 49.8084C454.591 51.5716 453.942 53.6575 453.964 56.0443C453.964 58.8827 454.829 61.2266 456.645 63.0759C458.46 64.9252 461.228 66.2369 464.968 67.011L471.627 68.4087C473.421 68.7958 474.761 69.3544 475.605 70.0859C476.47 70.8166 476.88 71.7195 476.88 72.838C476.88 74.1496 476.21 75.268 474.891 76.1493C473.573 77.0315 471.8 77.4825 469.616 77.4825C467.432 77.4825 465.768 77.0315 464.449 76.1493C463.131 75.268 462.266 73.9349 461.855 72.1714L452.861 73.0319C453.424 76.6012 455.152 79.3966 458.072 81.3964C460.99 83.3962 464.838 84.4065 469.616 84.4065C472.88 84.4065 475.756 83.8905 478.264 82.8369C480.772 81.7834 482.739 80.3428 484.166 78.472C485.572 76.6012 486.307 74.4508 486.307 71.9991C486.307 69.2258 485.377 66.968 483.561 65.2477C481.766 63.5275 478.999 62.2588 475.302 61.4847L475.345 61.3986Z" fill="black"/>
<path d="M519.298 65.1836C517.504 63.4633 514.736 62.1947 511.039 61.4206L504.38 60.0014C502.392 59.5498 500.964 58.9693 500.121 58.2597C499.256 57.55 498.846 56.6254 498.868 55.5072C498.868 54.1955 499.494 53.1203 500.792 52.3032C502.089 51.4861 503.689 51.056 505.613 51.056C507.04 51.056 508.25 51.2925 509.223 51.7442C510.218 52.1957 510.996 52.7978 511.58 53.5504C512.163 54.303 512.574 55.0771 512.812 55.9373L521.2 55.0341C520.573 51.7226 518.93 49.0993 516.292 47.1639C513.656 45.2286 510.045 44.261 505.462 44.261C502.348 44.261 499.581 44.7556 497.203 45.7232C494.825 46.6909 492.965 48.0671 491.625 49.8303C490.285 51.5936 489.636 53.6795 489.657 56.0663C489.657 58.9047 490.522 61.2486 492.338 63.0978C494.155 64.9472 496.921 66.2588 500.662 67.0329L507.32 68.4307C509.115 68.8177 510.456 69.3769 511.298 70.1076C512.163 70.8391 512.574 71.742 512.574 72.8605C512.574 74.1721 511.904 75.2905 510.585 76.1718C509.266 77.0531 507.493 77.505 505.31 77.505C503.127 77.505 501.462 77.0531 500.143 76.1718C498.824 75.2905 497.959 73.9574 497.549 72.1939L488.555 73.0536C489.117 76.6237 490.847 79.4191 493.765 81.4189C496.684 83.4187 500.532 84.429 505.31 84.429C508.575 84.429 511.45 83.913 513.958 82.8594C516.466 81.8059 518.433 80.3653 519.86 78.4945C521.265 76.6237 522 74.4733 522 72.0216C522 69.2478 521.07 66.99 519.255 65.2697L519.298 65.1836Z" fill="black"/>
<path d="M366.601 32.2612H356.072V41.0992H366.601V32.2612Z" fill="black"/>
<path d="M39.6067 65.5268C39.5634 65.3332 39.4986 65.1612 39.4338 64.9677C39.3689 64.7741 39.3256 64.5807 39.2608 64.4086C39.1095 63.957 38.9365 63.5269 38.7203 63.1399C37.8771 61.4626 36.7314 60.0434 35.2829 58.8608C33.8344 57.678 32.1912 56.7104 30.3753 55.9148C28.5592 55.1406 26.6567 54.5171 24.6894 54.0655L19.8033 52.8398C18.7224 52.5818 17.663 52.2807 16.6253 51.8936C15.5876 51.5066 14.6147 51.055 13.7499 50.5174C12.8852 49.9799 12.1933 49.2917 11.6961 48.4962C11.1989 47.7005 10.9394 46.7759 10.9394 45.7007C10.9394 44.8621 11.134 44.1094 11.4367 43.3998H11.415C11.588 43.0128 11.8042 42.6042 12.0853 42.2172C12.7338 41.3355 13.6418 40.6259 14.7877 40.0669L14.7228 40.1313C14.9174 40.0238 15.112 39.9379 15.3281 39.8518C16.7334 39.2712 18.4197 38.9702 20.3871 38.9702C23.1759 38.9702 25.4676 39.5937 27.2188 40.8195C28.97 42.0452 29.9645 43.7654 30.2023 45.9802H39.2824C39.2824 45.9802 39.2824 45.9588 39.2824 45.9372C39.2391 43.0128 38.4177 40.4324 36.8178 38.1746C35.2179 35.9167 33.0345 34.1535 30.2455 32.8848C27.4566 31.6161 24.2137 30.9709 20.5168 30.9709C16.8199 30.9709 13.5986 31.6161 10.7232 32.8848C7.84781 34.1535 5.5562 35.9382 3.89153 38.2391C2.22677 40.5399 1.38366 43.2063 1.38366 46.2598C1.38366 48.4531 1.88092 50.367 2.74568 52.0442C2.81052 52.1517 2.87536 52.2592 2.9402 52.3667C3.17801 52.7753 3.39427 53.2053 3.69692 53.5924C4.1077 54.173 4.58331 54.7321 5.12378 55.2267C7.61 57.463 11.0043 59.1188 15.2849 60.2154L21.2086 61.7422C23.0679 62.2153 24.7109 62.7528 26.1162 63.3549C27.5214 63.957 28.6025 64.6882 29.3807 65.5913C30.159 66.4729 30.5482 67.5911 30.5698 68.9243C30.5482 70.4079 30.0942 71.6978 29.2294 72.7947C28.343 73.8915 27.1323 74.7728 25.5758 75.3753C24.0191 75.977 22.2247 76.2999 20.1709 76.2999C18.117 76.2999 16.4307 75.9986 14.8309 75.4186C13.2527 74.8377 11.9555 73.9348 10.9826 72.7306C9.98819 71.5264 9.44764 70.0426 9.29631 68.2362H0C0 68.2362 0 68.2577 0 68.2792C0.129683 71.7195 1.03772 74.6438 2.70239 77.0314C4.36715 79.4182 6.70205 81.2457 9.66389 82.4932C12.6474 83.7398 16.1497 84.364 20.2141 84.364C24.2786 84.364 27.9539 83.7182 30.8941 82.4283C33.8344 81.1384 36.0828 79.3316 37.661 77.0314C39.2176 74.7304 39.9959 72.064 39.9959 69.0103C39.9959 67.7631 39.8445 66.6019 39.5851 65.5268H39.6067Z" fill="#3944FA"/>
<path d="M180.965 35.5959C176.114 35.5959 172.182 31.6143 172.182 26.7027C172.182 21.7911 176.114 17.8096 180.965 17.8096C185.816 17.8096 189.748 21.7911 189.748 26.7027C189.748 31.6143 185.816 35.5959 180.965 35.5959Z" fill="#3944FA"/>
<path d="M202.946 26.7253C195.657 26.7253 189.749 20.7427 189.749 13.3627C189.749 5.98265 195.657 0 202.946 0C210.235 0 216.144 5.98265 216.144 13.3627C216.144 20.7427 210.235 26.7253 202.946 26.7253Z" fill="#3944FA"/>
</g>
<defs>
<clipPath id="clip0_10_38">
<rect width="522" height="98" fill="white"/>
</clipPath>
</defs>
</svg>
