<svg width="468" height="193" viewBox="0 0 468 193" fill="none" xmlns="http://www.w3.org/2000/svg">
<path d="M96.7106 16.4071C52.5278 16.4071 16.7106 52.2243 16.7106 96.4071C16.7106 140.59 52.5278 176.407 96.7106 176.407C140.893 176.407 176.711 140.59 176.711 96.4071C176.711 52.2243 140.893 16.4071 96.7106 16.4071Z" fill="#F16C4F"/>
<path d="M146.125 73.9499V58.6635C146.125 55.3437 143.272 52.4315 140.019 52.4315H121.436C118.185 52.4315 115.333 55.3437 115.333 58.6635V94.2965C115.333 97.6145 118.182 100.525 121.43 100.525L134.571 100.522V128.826H126.196V112.217L115.333 112.236V134.23C115.333 137.506 118.185 140.379 121.436 140.379H140.019C143.272 140.379 146.125 137.43 146.125 134.068V96.1265C146.125 92.9055 143.308 88.9711 140.019 88.9711L126.196 88.9679V63.9853H134.571V73.9499H146.125Z" fill="white"/>
<path fill-rule="evenodd" clip-rule="evenodd" d="M104.9 140.383H85.8942C82.5762 140.383 79.6656 137.525 79.6656 134.267V58.8661C79.6656 55.5003 82.5552 52.4349 85.7282 52.4349H104.9C108.216 52.4349 111.125 55.3285 111.125 58.6271V73.9535H99.5712V63.9889H91.1962V88.9713H104.9C108.216 88.9713 111.125 91.8663 111.125 95.1667V134.111C111.125 137.452 108.216 140.383 104.9 140.383ZM99.5744 100.525H91.1994V128.829H99.5744V100.525Z" fill="white"/>
<path d="M68.8144 88.9714V100.525H58.85V140.383H47.296V52.435H75.4574V63.989H58.85V88.9714H68.8144Z" fill="white"/>
<path d="M229.663 45.7646C233.737 45.7646 237.062 47.0325 239.64 49.5684C242.217 52.0627 243.506 55.7002 243.506 60.4809V80.4352H239.203V60.9797C239.203 57.2799 238.268 54.453 236.397 52.4992C234.568 50.5453 232.053 49.5684 228.852 49.5684C225.568 49.5684 222.949 50.6077 220.995 52.6863C219.041 54.7648 218.064 57.8203 218.064 61.8527V80.4352H213.699V46.3882H218.064V52.1874C219.145 50.1088 220.704 48.5291 222.741 47.4483C224.778 46.3258 227.085 45.7646 229.663 45.7646Z" fill="white"/>
<path d="M283.964 61.6657C283.964 63.1622 283.922 64.3055 283.839 65.0953H255.591C255.716 67.6727 256.34 69.876 257.462 71.7052C258.585 73.5343 260.06 74.9269 261.889 75.8831C263.719 76.7977 265.714 77.2549 267.876 77.2549C270.703 77.2549 273.072 76.569 274.984 75.1972C276.938 73.8253 278.227 71.9754 278.851 69.6474H283.465C282.634 72.9731 280.846 75.696 278.102 77.8162C275.4 79.8947 271.991 80.934 267.876 80.934C264.675 80.934 261.806 80.2273 259.27 78.8139C256.735 77.3589 254.739 75.3219 253.284 72.7029C251.871 70.0423 251.164 66.9452 251.164 63.4117C251.164 59.8781 251.871 56.781 253.284 54.1205C254.698 51.4599 256.672 49.4229 259.208 48.0095C261.744 46.596 264.633 45.8893 267.876 45.8893C271.118 45.8893 273.945 46.596 276.356 48.0095C278.809 49.4229 280.68 51.3352 281.968 53.7463C283.299 56.1159 283.964 58.7557 283.964 61.6657ZM279.537 61.541C279.578 59.0051 279.058 56.8434 277.978 55.0558C276.938 53.2683 275.504 51.9172 273.675 51.0026C271.846 50.088 269.85 49.6308 267.689 49.6308C264.446 49.6308 261.682 50.67 259.395 52.7486C257.109 54.8272 255.841 57.758 255.591 61.541H279.537Z" fill="white"/>
<path d="M297.624 50.0673V71.2063C297.624 73.2849 298.019 74.7191 298.809 75.5089C299.599 76.2988 300.992 76.6937 302.987 76.6937H306.978V80.4352H302.301C299.225 80.4352 296.939 79.7284 295.442 78.315C293.945 76.86 293.197 74.4904 293.197 71.2063V50.0673H288.458V46.3882H293.197V37.8453H297.624V46.3882H306.978V50.0673H297.624Z" fill="white"/>
<path d="M359.074 46.3882L348.411 80.4352H344.046L334.63 51.8756L325.214 80.4352H320.787L310.124 46.3882H314.551L323.032 76.0078L332.572 46.3882H336.937L346.353 76.0702L354.771 46.3882H359.074Z" fill="white"/>
<path d="M379.928 80.934C376.727 80.934 373.838 80.2273 371.26 78.8139C368.725 77.3589 366.708 75.3219 365.212 72.7029C363.757 70.0423 363.029 66.9452 363.029 63.4117C363.029 59.8781 363.778 56.8018 365.274 54.1828C366.771 51.5223 368.808 49.4853 371.385 48.0718C373.963 46.6168 376.852 45.8893 380.053 45.8893C383.254 45.8893 386.143 46.6168 388.72 48.0718C391.339 49.4853 393.376 51.5223 394.831 54.1828C396.328 56.8018 397.076 59.8781 397.076 63.4117C397.076 66.9037 396.328 69.98 394.831 72.6405C393.335 75.3011 391.277 77.3589 388.658 78.8139C386.039 80.2273 383.129 80.934 379.928 80.934ZM379.928 77.1302C382.173 77.1302 384.251 76.6314 386.164 75.6337C388.076 74.5944 389.614 73.0562 390.778 71.0192C391.984 68.9407 392.587 66.4048 392.587 63.4117C392.587 60.4185 392.005 57.9035 390.841 55.8665C389.677 53.7879 388.138 52.2498 386.226 51.252C384.314 50.2128 382.235 49.6931 379.99 49.6931C377.746 49.6931 375.667 50.2128 373.755 51.252C371.842 52.2498 370.304 53.7879 369.14 55.8665C368.018 57.9035 367.457 60.4185 367.457 63.4117C367.457 66.4048 368.018 68.9407 369.14 71.0192C370.304 73.0562 371.822 74.5944 373.692 75.6337C375.605 76.6314 377.683 77.1302 379.928 77.1302Z" fill="white"/>
<path d="M409.398 52.4368C410.354 50.3167 411.809 48.6746 413.763 47.5106C415.759 46.3466 418.19 45.7646 421.059 45.7646V50.3167H419.874C416.715 50.3167 414.179 51.1689 412.267 52.8733C410.354 54.5778 409.398 57.4254 409.398 61.4162V80.4352H405.033V46.3882H409.398V52.4368Z" fill="white"/>
<path d="M446.021 80.4352L431.99 65.1577V80.4352H427.625V34.2909H431.99V61.6033L445.709 46.3882H451.82L435.669 63.3493L451.945 80.4352H446.021Z" fill="white"/>
<path d="M218.002 115.871C219.083 113.585 220.787 111.693 223.115 110.197C225.485 108.658 228.291 107.889 231.533 107.889C234.61 107.889 237.374 108.617 239.827 110.072C242.321 111.485 244.254 113.522 245.626 116.183C247.039 118.802 247.746 121.857 247.746 125.349C247.746 128.841 247.039 131.918 245.626 134.578C244.254 137.239 242.321 139.297 239.827 140.752C237.374 142.207 234.61 142.934 231.533 142.934C228.332 142.934 225.547 142.186 223.177 140.689C220.808 139.151 219.083 137.239 218.002 134.952V158.523H213.699V108.388H218.002V115.871ZM243.319 125.349C243.319 122.522 242.758 120.091 241.635 118.054C240.554 115.975 239.058 114.395 237.145 113.314C235.233 112.234 233.071 111.693 230.66 111.693C228.332 111.693 226.191 112.254 224.238 113.377C222.325 114.499 220.808 116.1 219.685 118.178C218.563 120.257 218.002 122.668 218.002 125.412C218.002 128.155 218.563 130.567 219.685 132.645C220.808 134.724 222.325 136.324 224.238 137.447C226.191 138.569 228.332 139.13 230.66 139.13C233.071 139.13 235.233 138.59 237.145 137.509C239.058 136.387 240.554 134.786 241.635 132.707C242.758 130.587 243.319 128.135 243.319 125.349Z" fill="white"/>
<path d="M253.783 125.349C253.783 121.857 254.469 118.802 255.84 116.183C257.254 113.522 259.187 111.485 261.64 110.072C264.134 108.617 266.94 107.889 270.058 107.889C273.3 107.889 276.086 108.638 278.414 110.134C280.783 111.631 282.488 113.543 283.527 115.871V108.388H287.892V142.435H283.527V134.89C282.446 137.218 280.721 139.151 278.351 140.689C276.023 142.186 273.238 142.934 269.995 142.934C266.919 142.934 264.134 142.207 261.64 140.752C259.187 139.297 257.254 137.239 255.84 134.578C254.469 131.918 253.783 128.841 253.783 125.349ZM283.527 125.412C283.527 122.668 282.966 120.257 281.843 118.178C280.721 116.1 279.183 114.499 277.229 113.377C275.317 112.254 273.196 111.693 270.868 111.693C268.457 111.693 266.296 112.234 264.383 113.314C262.471 114.395 260.954 115.975 259.831 118.054C258.75 120.091 258.21 122.522 258.21 125.349C258.21 128.135 258.75 130.587 259.831 132.707C260.954 134.786 262.471 136.387 264.383 137.509C266.296 138.59 268.457 139.13 270.868 139.13C273.196 139.13 275.317 138.569 277.229 137.447C279.183 136.324 280.721 134.724 281.843 132.645C282.966 130.567 283.527 128.155 283.527 125.412Z" fill="white"/>
<path d="M302.222 114.437C303.178 112.317 304.633 110.675 306.587 109.511C308.582 108.347 311.014 107.765 313.883 107.765V112.317H312.698C309.538 112.317 307.003 113.169 305.09 114.873C303.178 116.578 302.222 119.425 302.222 123.416V142.435H297.857V108.388H302.222V114.437Z" fill="white"/>
<path d="M326.124 112.067V133.206C326.124 135.285 326.519 136.719 327.308 137.509C328.098 138.299 329.491 138.694 331.486 138.694H335.477V142.435H330.8C327.724 142.435 325.438 141.728 323.941 140.315C322.445 138.86 321.696 136.49 321.696 133.206V112.067H316.957V108.388H321.696V99.8453H326.124V108.388H335.477V112.067H326.124Z" fill="white"/>
<path d="M358.639 107.765C362.713 107.765 366.039 109.033 368.617 111.568C371.194 114.063 372.483 117.7 372.483 122.481V142.435H368.18V122.98C368.18 119.28 367.245 116.453 365.374 114.499C363.545 112.545 361.03 111.568 357.829 111.568C354.545 111.568 351.926 112.608 349.972 114.686C348.018 116.765 347.041 119.82 347.041 123.853V142.435H342.676V108.388H347.041V114.187C348.122 112.109 349.681 110.529 351.718 109.448C353.755 108.326 356.062 107.765 358.639 107.765Z" fill="white"/>
<path d="M412.941 123.666C412.941 125.162 412.899 126.305 412.816 127.095H384.568C384.693 129.673 385.317 131.876 386.439 133.705C387.561 135.534 389.037 136.927 390.866 137.883C392.696 138.798 394.691 139.255 396.853 139.255C399.679 139.255 402.049 138.569 403.961 137.197C405.915 135.825 407.204 133.975 407.827 131.647H412.442C411.61 134.973 409.823 137.696 407.079 139.816C404.377 141.895 400.968 142.934 396.853 142.934C393.652 142.934 390.783 142.227 388.247 140.814C385.712 139.359 383.716 137.322 382.261 134.703C380.848 132.042 380.141 128.945 380.141 125.412C380.141 121.878 380.848 118.781 382.261 116.12C383.675 113.46 385.649 111.423 388.185 110.009C390.721 108.596 393.61 107.889 396.853 107.889C400.095 107.889 402.922 108.596 405.333 110.009C407.786 111.423 409.657 113.335 410.945 115.746C412.276 118.116 412.941 120.756 412.941 123.666ZM408.513 123.541C408.555 121.005 408.035 118.843 406.954 117.056C405.915 115.268 404.481 113.917 402.652 113.003C400.823 112.088 398.827 111.631 396.666 111.631C393.423 111.631 390.658 112.67 388.372 114.749C386.086 116.827 384.818 119.758 384.568 123.541H408.513Z" fill="white"/>
<path d="M425.292 114.437C426.248 112.317 427.703 110.675 429.657 109.511C431.652 108.347 434.084 107.765 436.953 107.765V112.317H435.768C432.608 112.317 430.073 113.169 428.16 114.873C426.248 116.578 425.292 119.425 425.292 123.416V142.435H420.927V108.388H425.292V114.437Z" fill="white"/>
</svg>
